<?xml version="1.0" encoding="UTF-8" standalone="no"?>
<!-- Created with Inkscape (http://www.inkscape.org/) -->

<svg
   xmlns:dc="http://purl.org/dc/elements/1.1/"
   xmlns:cc="http://creativecommons.org/ns#"
   xmlns:rdf="http://www.w3.org/1999/02/22-rdf-syntax-ns#"
   xmlns:svg="http://www.w3.org/2000/svg"
   xmlns="http://www.w3.org/2000/svg"
   xmlns:sodipodi="http://sodipodi.sourceforge.net/DTD/sodipodi-0.dtd"
   xmlns:inkscape="http://www.inkscape.org/namespaces/inkscape"
   width="210mm"
   height="297mm"
   viewBox="0 0 210 297"
   version="1.1"
   id="svg8"
   inkscape:version="0.92.3 (2405546, 2018-03-11)"
   sodipodi:docname="logoUpgrade.svg">
  <defs
     id="defs2" />
  <sodipodi:namedview
     id="base"
     pagecolor="#ffffff"
     bordercolor="#666666"
     borderopacity="1.0"
     inkscape:pageopacity="0.0"
     inkscape:pageshadow="2"
     inkscape:zoom="8"
     inkscape:cx="755.47403"
     inkscape:cy="1064.991"
     inkscape:document-units="mm"
     inkscape:current-layer="svg8"
     showgrid="false"
     inkscape:window-width="1920"
     inkscape:window-height="1137"
     inkscape:window-x="1392"
     inkscape:window-y="-8"
     inkscape:window-maximized="1"
     showguides="true"
     inkscape:guide-bbox="true">
    <sodipodi:guide
       position="329.59524,267.34001"
       orientation="0,1"
       id="guide1379"
       inkscape:locked="false" />
    <sodipodi:guide
       position="138.62,281.64001"
       orientation="0,1"
       id="guide1381"
       inkscape:locked="false" />
  </sodipodi:namedview>
  <metadata
     id="metadata5">
    <rdf:RDF>
      <cc:Work
         rdf:about="">
        <dc:format>image/svg+xml</dc:format>
        <dc:type
           rdf:resource="http://purl.org/dc/dcmitype/StillImage" />
        <dc:title />
      </cc:Work>
    </rdf:RDF>
  </metadata>
  <path
     inkscape:connector-curvature="0"
     d="m 91.237596,14.879981 c -5.74,0 -8.11,3.83 -8.11,7.47 0,3.64 1.55,7.65001 8.93,7.65001 2.004903,0.0233 3.991948,-0.37891 5.83,-1.18 v -3.55001 h -0.55 c -1.408301,0.94087 -3.047893,1.47702 -4.74,1.55 -2.73,0 -4.92,-1 -4.92,-3.55 3.28,0 9.38,0.09 10.48,0.09 0.24,-3.83 -0.76,-8.48 -6.92,-8.48 z m 2.37,5.83 h -5.92 c -0.03683,-1.65949 1.342116,-3.00166 3,-2.92 1.7005,-0.23487 3.154865,1.2195 2.92,2.92 z m 72.790004,-5.83 c -5.74,0 -8.11,3.83 -8.11,7.47 0,3.64 1.55,7.65001 8.93,7.65001 2.0049,0.0233 3.99195,-0.37891 5.83,-1.18 v -3.55001 h -0.55 c -1.4083,0.94087 -3.04789,1.47702 -4.74,1.55 -2.73,0 -4.92,-1 -4.92,-3.55 3.28,0 9.38,0.09 10.48,0.09 0.28,-3.83 -0.72,-8.48 -6.92,-8.48 z m 2.37,5.83 h -5.92 c -0.0368,-1.65949 1.34212,-3.00166 3,-2.92 1.7005,-0.23487 3.15487,1.2195 2.92,2.92 z m -49.37,-5.74 c -1.63217,0.18541 -3.16284,0.88594 -4.37,2 v -1.63 h -4.56 c -2.14908,-0.12909 -4.25687,0.63014 -5.83,2.1 v -2.1 h -4.56 v 14.30001 h 4.56 v -9.50001 c 1.73,-1.25 4.56,-1.8 5.83,-0.89 v 15.13001 h 4.56 v -5.44 c 1.1871,0.62081 2.49263,0.98213 3.83,1.06 2.73,0 6.47,-2.19 6.47,-7.47001 0,-5.28 -2.38,-7.74 -5.93,-7.56 z m -2.55,11.75 c -0.61325,0.01 -1.22515,-0.0606 -1.82,-0.21 v -7.35 c 0.8015,-0.4339 1.68979,-0.6833 2.6,-0.73 1.78,0 3.05,0.91 3.05,4 0,3.09 -1.65,4.29 -3.84,4.29 z m 25.14,-11.38 v 14.30001 h -4.65 v -10.39001 c -1.28,-0.91 -4.1,-0.36 -5.83,0.89 v 9.50001 h -4.56 v -14.30001 h 4.56 v 2.09 c 1.57313,-1.46986 3.68092,-2.22909 5.83,-2.1 z m -4.65,-7.2100103 h 4.65 v 3.6400103 h -4.65 z m 19.13,7.9300103 v 3.55 h -0.36 c -1.34697,-1.04846 -3.00309,-1.6216 -4.71,-1.63 -1.18,0 -2.92,0.27 -2.92,1.28 0,1.18 2.73,1.28 4.65,1.73 1.55,0.36 3.83,1.09 4,4 0.24,3.91001 -4.19,5.10001 -7.29,5.10001 -2.09127,0.013 -4.16443,-0.38809 -6.1,-1.18 v -3.83001 h 0.46 c 1.49124,1.21919 3.35388,1.89299 5.28,1.91001 2.46,0 3,-0.46001 3,-1.18001 0,-0.91 -1.28,-1.21 -3.64,-1.55 -1.91,-0.27 -5,-1.49 -5,-4.56 0.094,-1.69673 1.15675,-3.18763 2.73,-3.83 1.52723,-0.64248 3.17368,-0.95268 4.83,-0.91 1.75668,-0.0778 3.50351,0.3012 5.07,1.1 z m -108.070004,-1.18 c -7.38,0 -8.2,5.65 -8.2,7.65 0,2 0.73,7.47001 9,7.47001 2.004903,0.0233 3.991948,-0.37891 5.83,-1.18 v -3.55001 h -0.55 c -1.408301,0.94087 -3.047893,1.47702 -4.74,1.55 -2.73,0 -5,-1 -5,-3.55 3.28,0 9.48,0.09 10.57,0.09 0.31,-3.83 -0.69,-8.48 -6.91,-8.48 z m 2.37,5.83 h -6 c 0.08557,-1.64601 1.451817,-2.93293 3.1,-2.92 1.7005,-0.23487 3.154865,1.2195 2.92,2.92 z m 20.79,1.82 v 7.11001 h -4.55 v -7.26001 c 0,-1.52 -0.09,-2.67 -1,-3.31 -1.17,-0.82 -3.28,-0.27 -4.28,0.59 v 10.00001 h -4.47 v -14.23001 h 4.46 v 1.48 c 3.1,-2.48 6.41,-2.52 8.29,-0.75 1.39,1.27 1.55,2.64 1.55,6.37 z m 7.29,-4.1 v 5.74 c 0,4.10001 3.64,2.28 3.92,2.28 h 0.36 v 3.00001 c -2.08,0.66 -5.28,0.78 -7,-0.36 -1.200539,-0.8583 -1.885401,-2.26566 -1.82,-3.74001 v -6.92 h -1.91 v -1.82 l 6.47,-3.92 v 2.64 h 4.28 v 3.1 z"
     style="font-style:normal;font-variant:normal;font-weight:bold;font-stretch:normal;font-size:30.31177139px;font-family:'Conqueror Sans';-inkscape-font-specification:'Conqueror Sans, Bold';font-variant-ligatures:normal;font-variant-caps:normal;font-variant-numeric:normal;font-feature-settings:normal;text-align:start;writing-mode:lr-tb;text-anchor:start;stroke-width:0.26434684"
     id="path891"
     sodipodi:nodetypes="sscccccccsccccsscccccccscccccccccccccccccccscccccscccccccccccccccccccccccscccccccscccccsscccccccscccccsccsccccccccscsscccccccccccc" />
  <path
     d="M 6.15,29.740003 A 15.36,15.36 0 0 1 2.87,8.5199953 7.18,7.18 0 0 0 6.15,11.670002 Z M 30.7,17.449999 A 15.35,15.35 0 0 1 6.15,29.740003 h 6.1 V 11.670002 a 7.16,7.16 0 0 0 3.4,-9.5600034 15.35,15.35 0 0 1 13.77,9.2000034 h -16.1 v 4.000001 h 5.13 v 14.42 h 6.1 v -14.4 h 6 a 15.47,15.47 0 0 1 0.15,2.119996 z"
     id="path1369"
     inkscape:connector-curvature="0" />
  <circle
     cx="9.2200003"
     cy="5.1199908"
     r="5.1199999"
     id="circle1371" />
  <path
     id="path881"
     style="font-style:normal;font-variant:normal;font-weight:bold;font-stretch:normal;font-size:30.31177139px;font-family:'Conqueror Sans';-inkscape-font-specification:'Conqueror Sans, Bold';font-variant-ligatures:normal;font-variant-caps:normal;font-variant-numeric:normal;font-feature-settings:normal;text-align:start;writing-mode:lr-tb;text-anchor:start;stroke-width:0.26434684"
     d="m 318.9305,24.426785 -3.39492,-9.06322 h -5.09238 l 6.24423,14.21622 -2.60682,6.00173 h 4.39521 l 8.54792,-20.21795 h -4.39521 z m -14.58517,-5.97441 v 5.74 c 0,4.10001 3.64,2.28 3.92,2.28 h 0.36 v 3.00001 c -2.08,0.66 -5.28,0.78 -7,-0.36 -1.20054,-0.8583 -1.8854,-2.26566 -1.82,-3.74001 v -6.92 h -1.91 v -1.82 l 6.47,-3.92 v 2.64 h 4.28 v 3.1 z m -13.43955,-3.1 4.65,0.01 v 14.30001 h -4.65 z m 0,-7.2000086 h 4.65 v 3.6400086 h -4.65 z m -61.95357,7.2111986 6.51703,14.30715 h 3.27367 l 6.54735,-14.30715 h -4.18303 l -3.75866,9.18447 -3.66772,-9.18447 z m -40.80005,7.18869 v -7.11 h 4.55 v 7.26 c 0,1.52 0.09,2.67 1,3.31 1.17,0.82 3.28,0.27 4.28,-0.59 v -10 h 4.47 v 14.23 h -4.46 v -1.48 c -3.1,2.48 -6.41,2.52 -8.29,0.75 -1.39,-1.27 -1.55,-2.64 -1.55,-6.37 z m 31.3656,1.1e-4 v 7.11 h -4.55 v -7.26 c 0,-1.52 -0.09,-2.67 -1,-3.31 -1.17,-0.82 -3.28,-0.27 -4.28,0.59 v 10 h -4.47 v -14.23 h 4.46 v 1.48 c 3.1,-2.48 6.41,-2.52 8.29,-0.75 1.39,1.27 1.55,2.64 1.55,6.37 z m 2.70969,-7.2 4.65,0.01 v 14.3 h -4.65 z m 0,-7.1999986 h 4.65 v 3.6399986 h -4.65 z m 65.50772,7.9300086 v 3.55 h -0.36 c -1.34697,-1.04846 -3.00309,-1.62159 -4.71,-1.63 -1.18,0 -2.92,0.27 -2.92,1.28 0,1.18 2.73,1.28 4.65,1.73 1.55,0.36 3.83,1.09 4,4 0.24,3.91001 -4.19,5.10001 -7.29,5.10001 -2.09127,0.013 -4.16443,-0.38809 -6.1,-1.18 v -3.83001 h 0.46 c 1.49124,1.21919 3.35388,1.89298 5.28,1.91001 2.46,0 3,-0.46001 3,-1.18001 0,-0.91 -1.28,-1.21 -3.64,-1.55 -1.91,-0.27 -5,-1.49 -5,-4.56 0.094,-1.69673 1.15675,-3.18763 2.73,-3.83 1.52723,-0.64248 3.17368,-0.95268 4.83,-0.91 1.75668,-0.0778 3.50351,0.30119 5.07,1.1 z m -14.82106,3.19 c -1.28,-0.91 -4.1,-0.36 -5.83,0.89 v 9.50001 h -4.56 v -14.30001 h 4.56 v 2.09 c 1.57313,-1.46986 4.75668,-2.32263 6.90576,-2.19354 z m -19.5058,-4.37 c -7.38,0 -8.2,5.65 -8.2,7.65 0,2 0.73,7.47001 9,7.47001 2.0049,0.0233 3.99195,-0.37891 5.83,-1.18 v -3.55001 h -0.55 c -1.4083,0.94087 -3.04789,1.47703 -4.74,1.55 -2.73,0 -5,-1 -5,-3.55 3.28,0 9.48,0.09 10.57,0.09 0.31,-3.83 -0.69,-8.48 -6.91,-8.48 z m 2.37,5.83 h -6 c 0.0856,-1.64601 1.45182,-2.93292 3.1,-2.92 1.7005,-0.23486 3.15487,1.2195 2.92,2.92 z"
     inkscape:connector-curvature="0"
     sodipodi:nodetypes="ccccccccccssccccccccccccccccccccccccccccccsccsccccccccssccsccccccccsccccccccccccccscccccccsccccccccccccccsscccccccsccccc" />
</svg>
